<svg width="24" height="24" viewBox="0 0 24 24" fill="none" xmlns="http://www.w3.org/2000/svg">
<circle cx="12" cy="12" r="12" fill="#8655F0"/>
<path d="M8.9625 7.80021C8.96234 8.11847 8.83576 8.42363 8.6106 8.64856C8.38545 8.87349 8.08016 8.99977 7.7619 8.99961C7.44364 8.99945 7.13848 8.87287 6.91355 8.64771C6.68862 8.42256 6.56234 8.11727 6.5625 7.79901C6.56266 7.48075 6.68924 7.17559 6.9144 6.95066C7.13955 6.72573 7.44484 6.59945 7.7631 6.59961C8.08136 6.59977 8.38652 6.72635 8.61145 6.95151C8.83638 7.17666 8.96266 7.48195 8.9625 7.80021ZM8.9985 9.88821H6.5985V17.4002H8.9985V9.88821ZM12.7905 9.88821H10.4025V17.4002H12.7665V13.4582C12.7665 11.2622 15.6285 11.0582 15.6285 13.4582V17.4002H17.9985V12.6422C17.9985 8.94021 13.7625 9.07821 12.7665 10.8962L12.7905 9.88821Z" fill="white"/>
</svg>
